<?xml version="1.0" standalone="no"?>
<!DOCTYPE svg PUBLIC "-//W3C//DTD SVG 20010904//EN"
 "http://www.w3.org/TR/2001/REC-SVG-20010904/DTD/svg10.dtd">
<svg version="1.0" xmlns="http://www.w3.org/2000/svg"
 width="512.000000pt" height="512.000000pt" viewBox="0 0 512.000000 512.000000"
 preserveAspectRatio="xMidYMid meet">
<metadata>
Created by potrace 1.14, written by Peter Selinger 2001-2017
</metadata>
<g transform="translate(0.000000,512.000000) scale(0.100000,-0.100000)"
fill="#000000" stroke="none">
<path d="M815 3922 c230 -138 407 -521 435 -940 5 -75 12 -207 15 -292 8 -173
26 -259 78 -372 83 -180 237 -355 401 -457 127 -79 335 -151 434 -151 24 0 21
3 -23 29 -116 67 -251 247 -324 434 -77 198 -107 356 -116 617 -3 102 -11 232
-16 288 -40 425 -438 817 -879 867 l-55 7 50 -30z"/>
<path d="M4220 3935 c-219 -44 -449 -181 -597 -354 -117 -137 -208 -310 -233
-443 -6 -27 -19 -161 -30 -296 -22 -272 -28 -309 -71 -461 -90 -315 -253 -561
-434 -655 -26 -14 -27 -16 -8 -16 43 0 170 29 249 57 281 100 538 350 645 626
40 106 47 144 69 422 20 251 26 293 60 424 42 165 119 341 203 466 55 81 150
175 217 213 51 29 53 32 25 31 -16 0 -59 -7 -95 -14z"/>
<path d="M4497 3011 c-2 -805 -5 -911 -19 -952 -39 -110 -92 -179 -155 -200
-18 -6 -33 -15 -33 -20 0 -5 168 -9 415 -9 277 0 415 3 415 10 0 6 -13 13 -29
16 -69 14 -136 105 -167 225 -15 56 -16 145 -16 745 0 729 1 745 51 842 26 52
81 98 125 106 38 7 47 21 19 30 -10 3 -142 28 -293 56 -151 27 -283 52 -292
54 -16 4 -18 -52 -21 -903z"/>
<path d="M345 3850 c-93 -20 -166 -96 -181 -188 -22 -136 90 -262 232 -262 54
0 136 41 169 83 86 114 53 280 -68 344 -38 19 -114 31 -152 23z"/>
<path d="M2468 3635 c-27 -9 -64 -33 -91 -58 -121 -119 -95 -310 55 -393 44
-24 64 -29 118 -28 171 2 285 162 230 323 -43 127 -183 197 -312 156z"/>
<path d="M1830 3443 c0 -5 21 -29 46 -53 156 -152 315 -429 418 -728 117 -340
211 -853 231 -1267 10 -188 12 -215 18 -222 10 -9 16 37 22 182 12 302 71 709
145 1003 112 447 269 772 485 1009 36 39 65 74 65 78 0 4 -32 -22 -70 -58
-126 -116 -313 -231 -477 -293 -138 -52 -263 -39 -439 45 -136 65 -253 142
-359 236 -47 42 -85 72 -85 68z"/>
<path d="M595 3028 c-175 -21 -322 -85 -421 -183 -119 -119 -168 -248 -169
-440 0 -135 11 -185 63 -290 68 -138 223 -255 397 -301 91 -25 417 -25 505 -1
l55 15 -40 1 c-93 2 -278 156 -348 288 -51 97 -69 179 -69 303 1 164 38 312
102 405 76 110 182 168 309 167 40 -1 72 1 70 3 -2 2 -39 10 -81 19 -92 19
-274 26 -373 14z"/>
</g>
</svg>
