<svg width="530" height="285" viewBox="0 0 530 285" fill="none" xmlns="http://www.w3.org/2000/svg">
<g clip-path="url(#clip0)">
<path d="M259.4 284.8C259.1 277.9 258.8 271.1 258.4 264.2C257.7 251.2 256.5 238.3 254.9 225.4C252.6 206.4 249.4 187.5 245 168.8C239.7 146.5 232.9 124.6 223.2 103.8C215.6 87.5 205.6 72.7 193.6 59.4C191.6 57.2 189.4 55.2 187.1 53.2C186.8 52.9 185.8 52.8 186.7 52C187.3 51.5 187.6 51.1 188.4 51.9C196.2 60.3 205 67.4 214.6 73.5C224.1 79.5 234.1 84.6 244.6 88.5C248.5 89.9 252.6 90.7 256.9 91C265.2 91.5 273.1 90 280.7 86.8C299.2 78.9 316 68.5 330.2 54.1C331 53.3 331.7 52.6 332.4 51.8C333.1 51 333.4 51.9 333.8 52.2C334.5 52.6 334 52.9 333.7 53.2C318.5 67 307.2 83.7 298.3 102C289.1 120.8 282.7 140.7 277.5 160.9C272.6 180.3 269 199.9 266.4 219.7C264.1 237.1 262.6 254.5 261.7 272C261.5 276.4 261.3 280.7 261.1 285.1C260.6 284.8 260 284.8 259.4 284.8Z" fill="#FFF27A"/>
<path d="M0.2 163.8H0.1H0C0 161 0 158.2 0 155.4C0.1 155.4 0.1 155.4 0.2 155.4C0.2 158.2 0.2 161 0.2 163.8Z" fill="#DF90AC"/>
<path d="M460 92.9C460 63.6 460 34.3 460 5.09999C460 3.59999 460 3.59999 461.5 3.89999C481.4 7.59999 501.4 11.3 521.3 15C521.6 15.1 521.8 15.1 522.1 15.2C523 15.4 523.7 16.9 523.2 17.7C523 18 522.7 17.9 522.4 17.9C517.7 17.7 514 19.8 510.9 23.2C507.1 27.4 504.9 32.5 503.4 37.9C501.9 43.5 501.4 49.3 501.4 55.1C501.4 68.1 501.4 81.2 501.4 94.2C501.4 107.1 501.4 120 501.4 133C501.4 147.7 501.3 162.4 501.4 177C501.4 185.8 503 194.3 507.1 202.3C508.8 205.5 510.9 208.4 513.6 210.8C516.1 212.9 518.9 214.3 522.2 214.4C523.7 214.5 522.9 215.5 523 216.2C523.2 217 522.7 217.1 522 217.1C494.3 217.1 466.6 217.1 439 217.1C438.5 217.1 437.8 217.2 438 216.3C438.2 215.7 437.3 214.5 438.7 214.5C443.4 214.2 447 211.8 449.9 208.2C454.3 202.8 456.9 196.5 458.3 189.7C459.3 184.9 459.7 180 459.7 175.2C459.7 160.3 459.7 145.4 459.7 130.4C460 117.9 460 105.4 460 92.9Z" fill="#FFF27A"/>
<path d="M225.4 229.3C223.2 229.4 221.2 229.1 219.1 228.8C206.9 227.1 195.3 223.4 184.6 217.5C159.1 203.3 141.5 182.5 132.6 154.6C130.6 148.3 130 141.8 129.7 135.2C129.4 129.5 129.2 123.8 129 118.1C128.7 111.8 128.3 105.6 128.2 99.3C128 91.6 126.8 84 125.2 76.5C122.1 61.4 117.4 46.9 110.1 33.3C105.3 24.3 99.4 16.1 91.8 9.29999C87.9 5.89999 83.8 2.99999 79.2 0.799987C78.9 0.599987 78.6 0.499987 78.1 0.199987C79.2 -0.200013 80.1 0.0999868 81 0.199987C104 2.69999 123.8 12 140.9 27.4C153.9 39.2 163.4 53.3 169.5 69.7C172.1 76.6 173.6 83.7 173.9 91C174.6 106.1 175.3 121.1 176.1 136.2C176.5 143.6 178.1 150.9 179.7 158.1C183.2 173 188.2 187.2 196.1 200.4C201.6 209.6 208.2 217.9 217 224.2C219.7 226.2 222.5 227.8 225.4 229.3Z" fill="#FFF27A"/>
<path d="M288.8 229.5C295.1 226.4 300.7 222.3 305.6 217.4C313.8 209.4 320 200 325.1 189.8C332.7 174.7 337.6 158.6 340.7 142C341.8 135.9 342.1 129.6 342.6 123.4C343.5 113.3 344.2 103.2 345 93C345.9 80.9 349.7 69.7 355.5 59.2C368.5 35.5 387.4 18.3 412.3 7.6C419.8 4.4 427.7 2.2 435.8 0.9C438.6 0.5 441.3 0.1 444.1 0C444.2 0.2 444.1 0.3 444 0.4C433.8 5.2 425.9 12.6 419.2 21.5C410.1 33.4 403.9 46.8 399.1 61C395.7 71.1 393.1 81.5 391.6 92.1C390.9 97.1 390.7 102.1 390.3 107.1C389.8 113.5 389.3 119.9 388.8 126.4C388.4 130.9 388.1 135.5 387.7 140C386.9 147 385.2 153.8 382.4 160.3C370 189.2 349.3 209.8 320.3 222.1C310.5 226.3 300.2 228.6 289.5 229.5C289.2 229.5 289 229.5 288.8 229.5Z" fill="#FFF27A"/>
<path d="M0.200001 163.8C0.200001 161 0.200001 158.2 0.200001 155.4C0.900001 139.8 5.5 125.7 16.5 114.2C24.6 105.7 34.6 100.4 45.9 97.3C56.2 94.5 66.6 93.5 77.2 93.7C87.4 93.9 97.4 94.9 107.1 97.9C108.3 98.3 109.5 98.6 110.9 99.3C108.9 99 107.2 98.7 105.4 98.5C103.1 98.1 100.7 98 98.4 97.9C93.6 97.6 89.2 99.2 84.9 101.1C74.5 105.7 67.8 113.9 63.6 124.2C60.8 131.1 59.3 138.3 58.5 145.6C57.8 151.5 57.5 157.3 58 163.2C59.1 177.9 64.7 190.5 74.9 201.1C80.3 206.7 86.4 211.4 93.2 215.1C96 216.6 98.9 217.3 102.1 217.3C102.7 217.3 103.3 217.3 103.9 217.4C101.7 218.3 99.4 218.8 97 219.2C81.9 221.6 66.8 222.2 51.8 219.5C38 217 25.8 211.1 16 200.9C6.8 191.4 1.9 179.8 0.500001 166.7C0.400001 165.7 0.300001 164.8 0.200001 163.8Z" fill="#FFF27A"/>
<path d="M260.5 81.7C246.5 81.7 235.2 70.3 235.2 56.3C235.2 42.3 246.6 31 260.6 31C274.6 31 285.9 42.4 285.9 56.4C285.8 70.4 274.5 81.8 260.5 81.7Z" fill="#FFF27A"/>
<path d="M63 33.3C62.9 46.4 52.5 56.6 39.4 56.5C26.8 56.4 16.5 45.9 16.5 33.1C16.5 20.3 27 9.89998 39.9 9.99998C52.6 10.1 63 20.6 63 33.3Z" fill="#FFF27A"/>
</g>
<defs>
<clipPath id="clip0">
<rect width="529.7" height="284.8" fill="white"/>
</clipPath>
</defs>
</svg>
