<?xml version="1.0" encoding="utf-8"?>
<!-- Generator: Adobe Illustrator 21.1.0, SVG Export Plug-In . SVG Version: 6.00 Build 0)  -->
<svg version="1.1" id="Слой_1" xmlns="http://www.w3.org/2000/svg" xmlns:xlink="http://www.w3.org/1999/xlink" x="0px" y="0px"
	 viewBox="0 0 529.7 284.8" style="enable-background:new 0 0 529.7 284.8;" xml:space="preserve">
<style type="text/css">
	.st0{fill:#0B3F76;}
	.st1{fill:#DF90AC;}
	.st2{fill:#0A3E76;}
	.st3{fill:#BC1650;}
	.st4{fill:#0B3E76;}
</style>
<g>
	<path class="st0" d="M259.4,284.8c-0.3-6.9-0.6-13.7-1-20.6c-0.7-13-1.9-25.9-3.5-38.8c-2.3-19-5.5-37.9-9.9-56.6
		c-5.3-22.3-12.1-44.2-21.8-65c-7.6-16.3-17.6-31.1-29.6-44.4c-2-2.2-4.2-4.2-6.5-6.2c-0.3-0.3-1.3-0.4-0.4-1.2
		c0.6-0.5,0.9-0.9,1.7-0.1c7.8,8.4,16.6,15.5,26.2,21.6c9.5,6,19.5,11.1,30,15c3.9,1.4,8,2.2,12.3,2.5c8.3,0.5,16.2-1,23.8-4.2
		c18.5-7.9,35.3-18.3,49.5-32.7c0.8-0.8,1.5-1.5,2.2-2.3c0.7-0.8,1,0.1,1.4,0.4c0.7,0.4,0.2,0.7-0.1,1
		c-15.2,13.8-26.5,30.5-35.4,48.8c-9.2,18.8-15.6,38.7-20.8,58.9c-4.9,19.4-8.5,39-11.1,58.8c-2.3,17.4-3.8,34.8-4.7,52.3
		c-0.2,4.4-0.4,8.7-0.6,13.1C260.6,284.8,260,284.8,259.4,284.8z"/>
	<path class="st1" d="M0.2,163.8l-0.1,0l-0.1,0c0-2.8,0-5.6,0-8.4c0.1,0,0.1,0,0.2,0C0.2,158.2,0.2,161,0.2,163.8z"/>
	<path class="st2" d="M460,92.9c0-29.3,0-58.6,0-87.8c0-1.5,0-1.5,1.5-1.2c19.9,3.7,39.9,7.4,59.8,11.1c0.3,0.1,0.5,0.1,0.8,0.2
		c0.9,0.2,1.6,1.7,1.1,2.5c-0.2,0.3-0.5,0.2-0.8,0.2c-4.7-0.2-8.4,1.9-11.5,5.3c-3.8,4.2-6,9.3-7.5,14.7c-1.5,5.6-2,11.4-2,17.2
		c0,13,0,26.1,0,39.1c0,12.9,0,25.8,0,38.8c0,14.7-0.1,29.4,0,44c0,8.8,1.6,17.3,5.7,25.3c1.7,3.2,3.8,6.1,6.5,8.5
		c2.5,2.1,5.3,3.5,8.6,3.6c1.5,0.1,0.7,1.1,0.8,1.8c0.2,0.8-0.3,0.9-1,0.9c-27.7,0-55.4,0-83,0c-0.5,0-1.2,0.1-1-0.8
		c0.2-0.6-0.7-1.8,0.7-1.8c4.7-0.3,8.3-2.7,11.2-6.3c4.4-5.4,7-11.7,8.4-18.5c1-4.8,1.4-9.7,1.4-14.5c0-14.9,0-29.8,0-44.8
		C460,117.9,460,105.4,460,92.9z"/>
	<path class="st3" d="M225.4,229.3c-2.2,0.1-4.2-0.2-6.3-0.5c-12.2-1.7-23.8-5.4-34.5-11.3c-25.5-14.2-43.1-35-52-62.9
		c-2-6.3-2.6-12.8-2.9-19.4c-0.3-5.7-0.5-11.4-0.7-17.1c-0.3-6.3-0.7-12.5-0.8-18.8c-0.2-7.7-1.4-15.3-3-22.8
		c-3.1-15.1-7.8-29.6-15.1-43.2c-4.8-9-10.7-17.2-18.3-24C87.9,5.9,83.8,3,79.2,0.8c-0.3-0.2-0.6-0.3-1.1-0.6c1.1-0.4,2-0.1,2.9,0
		c23,2.5,42.8,11.8,59.9,27.2c13,11.8,22.5,25.9,28.6,42.3c2.6,6.9,4.1,14,4.4,21.3c0.7,15.1,1.4,30.1,2.2,45.2
		c0.4,7.4,2,14.7,3.6,21.9c3.5,14.9,8.5,29.1,16.4,42.3c5.5,9.2,12.1,17.5,20.9,23.8C219.7,226.2,222.5,227.8,225.4,229.3z"/>
	<path class="st4" d="M288.8,229.5c6.3-3.1,11.9-7.2,16.8-12.1c8.2-8,14.4-17.4,19.5-27.6c7.6-15.1,12.5-31.2,15.6-47.8
		c1.1-6.1,1.4-12.4,1.9-18.6c0.9-10.1,1.6-20.2,2.4-30.4c0.9-12.1,4.7-23.3,10.5-33.8c13-23.7,31.9-40.9,56.8-51.6
		c7.5-3.2,15.4-5.4,23.5-6.7c2.8-0.4,5.5-0.8,8.3-0.9c0.1,0.2,0,0.3-0.1,0.4c-10.2,4.8-18.1,12.2-24.8,21.1
		c-9.1,11.9-15.3,25.3-20.1,39.5c-3.4,10.1-6,20.5-7.5,31.1c-0.7,5-0.9,10-1.3,15c-0.5,6.4-1,12.8-1.5,19.3
		c-0.4,4.5-0.7,9.1-1.1,13.6c-0.8,7-2.5,13.8-5.3,20.3c-12.4,28.9-33.1,49.5-62.1,61.8c-9.8,4.2-20.1,6.5-30.8,7.4
		C289.2,229.5,289,229.5,288.8,229.5z"/>
	<path class="st3" d="M0.2,163.8c0-2.8,0-5.6,0-8.4c0.7-15.6,5.3-29.7,16.3-41.2c8.1-8.5,18.1-13.8,29.4-16.9
		c10.3-2.8,20.7-3.8,31.3-3.6c10.2,0.2,20.2,1.2,29.9,4.2c1.2,0.4,2.4,0.7,3.8,1.4c-2-0.3-3.7-0.6-5.5-0.8c-2.3-0.4-4.7-0.5-7-0.6
		c-4.8-0.3-9.2,1.3-13.5,3.2c-10.4,4.6-17.1,12.8-21.3,23.1c-2.8,6.9-4.3,14.1-5.1,21.4c-0.7,5.9-1,11.7-0.5,17.6
		c1.1,14.7,6.7,27.3,16.9,37.9c5.4,5.6,11.5,10.3,18.3,14c2.8,1.5,5.7,2.2,8.9,2.2c0.6,0,1.2,0,1.8,0.1c-2.2,0.9-4.5,1.4-6.9,1.8
		c-15.1,2.4-30.2,3-45.2,0.3c-13.8-2.5-26-8.4-35.8-18.6c-9.2-9.5-14.1-21.1-15.5-34.2C0.4,165.7,0.3,164.8,0.2,163.8z"/>
	<path class="st4" d="M260.5,81.7c-14,0-25.3-11.4-25.3-25.4c0-14,11.4-25.3,25.4-25.3c14,0,25.3,11.4,25.3,25.4
		C285.8,70.4,274.5,81.8,260.5,81.7z"/>
	<path class="st3" d="M63,33.3c-0.1,13.1-10.5,23.3-23.6,23.2c-12.6-0.1-22.9-10.6-22.9-23.4C16.5,20.3,27,9.9,39.9,10
		C52.6,10.1,63,20.6,63,33.3z"/>
</g>
</svg>
